<svg xmlns="http://www.w3.org/2000/svg" viewBox="0 0 183.86 292.28"><defs><style>.cls-1{fill:#fff;}.cls-2{fill:none;stroke:#fff;stroke-miterlimit:10;stroke-width:2px;}</style></defs><title>Logo-footer-white_1</title><g id="Capa_2" data-name="Capa 2"><g id="Capa_1-2" data-name="Capa 1"><path class="cls-1" d="M93.74,152.45a21.24,21.24,0,0,0,9.19-5.42,20.32,20.32,0,0,0,6.18-14.92V68.81A21.24,21.24,0,0,0,88,47.71H54.85V222.53a6,6,0,1,1-12.05,0V41.68a5.93,5.93,0,0,1,6-6H88a31.94,31.94,0,0,1,23.43,9.73,31.93,31.93,0,0,1,9.72,23.43v63.3a31.82,31.82,0,0,1-9.64,23.36,57.2,57.2,0,0,1-8.59,6.48l23.66,57.87a6.65,6.65,0,0,1,.6,2.71,5.72,5.72,0,0,1-.3,1.81,5.48,5.48,0,0,1-3,3.47,5.59,5.59,0,0,1-2.72.75,11.88,11.88,0,0,1-2-.15,6,6,0,0,1-3.47-3L90,161.34A6.24,6.24,0,0,1,91,154,5.37,5.37,0,0,1,93.74,152.45Z"/><polyline class="cls-2" points="175.42 241.53 175.42 257 1 257 1 1 175.42 1 175.42 197.92"/><circle class="cls-1" cx="174.71" cy="219.73" r="9.14"/><path class="cls-1" d="M6.87,283.62a2.38,2.38,0,0,0,1-.62,2.34,2.34,0,0,0,.7-1.7v-7.2a2.3,2.3,0,0,0-.71-1.69,2.33,2.33,0,0,0-1.69-.7H2.45v19.88a.68.68,0,0,1-.69.69.68.68,0,0,1-.49-.2.66.66,0,0,1-.19-.49V271a.67.67,0,0,1,.19-.49.68.68,0,0,1,.49-.2H6.22a3.6,3.6,0,0,1,2.66,1.11A3.63,3.63,0,0,1,10,274.1v7.2A3.63,3.63,0,0,1,8.89,284a6.22,6.22,0,0,1-1,.74l2.69,6.58a.87.87,0,0,1,.07.31.52.52,0,0,1,0,.21.63.63,0,0,1-.34.39.61.61,0,0,1-.31.09l-.22,0a.7.7,0,0,1-.4-.34l-2.93-7.29a.74.74,0,0,1,.12-.84A.6.6,0,0,1,6.87,283.62Z"/><path class="cls-1" d="M15.48,271a.67.67,0,0,1,.19-.49.68.68,0,0,1,.49-.2h6.53a.66.66,0,0,1,.49.2.68.68,0,0,1,.2.49.69.69,0,0,1-.2.48.64.64,0,0,1-.49.21H16.85v8.91h4.8a.66.66,0,0,1,.49.2.65.65,0,0,1,.19.48.66.66,0,0,1-.19.49.7.7,0,0,1-.49.2h-4.8v8.92h5.84a.66.66,0,0,1,.49.19.68.68,0,0,1,.2.49.69.69,0,0,1-.2.48.64.64,0,0,1-.49.21H16.16a.68.68,0,0,1-.49-.2.66.66,0,0,1-.19-.49Z"/><path class="cls-1" d="M29.19,291.59a.69.69,0,0,1-1.17.49.63.63,0,0,1-.2-.49V271a.64.64,0,0,1,.2-.49.65.65,0,0,1,.48-.19.73.73,0,0,1,.5.18.59.59,0,0,1,.1.16l8.32,17.86V271a.64.64,0,0,1,.2-.49.65.65,0,0,1,.48-.19.66.66,0,0,1,.49.19.68.68,0,0,1,.2.49v20.61a.6.6,0,0,1-.19.46.67.67,0,0,1-.5.21.66.66,0,0,1-.48-.21,1.81,1.81,0,0,1-.18-.27L29.19,274Z"/><path class="cls-1" d="M49.71,290.91a3,3,0,0,0,1.89-.9,2.91,2.91,0,0,0,.9-2.16V274.79a3.07,3.07,0,0,0-3.08-3.08H46.33v19.88a.66.66,0,0,1-.19.49.7.7,0,0,1-.49.2.68.68,0,0,1-.69-.69V271a.68.68,0,0,1,.2-.49.66.66,0,0,1,.49-.2h3.77a4.47,4.47,0,0,1,4.46,4.46v13.06A4.24,4.24,0,0,1,52.57,291a4.12,4.12,0,0,1-2.76,1.29.73.73,0,0,1-.54-.2.7.7,0,0,1,0-1A.64.64,0,0,1,49.71,290.91Z"/><path class="cls-1" d="M58.68,271a.67.67,0,0,1,.19-.49.68.68,0,0,1,.49-.2h6.53a.66.66,0,0,1,.49.2.68.68,0,0,1,.2.49.69.69,0,0,1-.2.48.64.64,0,0,1-.49.21H60.05v8.91h4.8a.66.66,0,0,1,.49.2.65.65,0,0,1,.19.48.66.66,0,0,1-.19.49.7.7,0,0,1-.49.2h-4.8v8.92h5.84a.66.66,0,0,1,.49.19.68.68,0,0,1,.2.49.69.69,0,0,1-.2.48.64.64,0,0,1-.49.21H59.36a.68.68,0,0,1-.49-.2.66.66,0,0,1-.19-.49Z"/><path class="cls-1" d="M76.81,283.62a2.38,2.38,0,0,0,1-.62,2.3,2.3,0,0,0,.7-1.7v-7.2a2.41,2.41,0,0,0-2.4-2.39H72.39v19.88a.69.69,0,0,1-1.17.49.63.63,0,0,1-.2-.49V271a.64.64,0,0,1,.2-.49.66.66,0,0,1,.48-.2h4.46a3.77,3.77,0,0,1,3.77,3.77v7.2A3.62,3.62,0,0,1,78.84,284a6.36,6.36,0,0,1-1,.74l2.69,6.58a.7.7,0,0,1,.07.31.52.52,0,0,1,0,.21.6.6,0,0,1-.34.39.59.59,0,0,1-.31.09l-.22,0a.68.68,0,0,1-.39-.34l-2.94-7.29a.77.77,0,0,1-.08-.34.7.7,0,0,1,.2-.5A.64.64,0,0,1,76.81,283.62Z"/><path class="cls-1" d="M94.33,271a.68.68,0,0,1,.2-.49.66.66,0,0,1,.49-.2.7.7,0,0,1,.49.2.67.67,0,0,1,.19.49v20.57a.66.66,0,0,1-.19.49.7.7,0,0,1-.49.2.68.68,0,0,1-.69-.69Z"/><path class="cls-1" d="M103.25,291.59a.68.68,0,0,1-.69.69.68.68,0,0,1-.49-.2.66.66,0,0,1-.19-.49V271a.65.65,0,0,1,.68-.68.73.73,0,0,1,.5.18,1,1,0,0,1,.1.16l8.32,17.86V271a.65.65,0,0,1,.68-.68.66.66,0,0,1,.49.19.68.68,0,0,1,.2.49v20.61a.64.64,0,0,1-.19.46.67.67,0,0,1-.5.21.66.66,0,0,1-.48-.21,1.85,1.85,0,0,1-.19-.27L103.25,274Z"/><path class="cls-1" d="M117.13,271.71a.7.7,0,0,1-.49-.2.73.73,0,0,1,0-1,.7.7,0,0,1,.49-.2h7.55a.66.66,0,0,1,.48.2.7.7,0,0,1,0,1,.66.66,0,0,1-.48.2h-3.09v19.88a.69.69,0,0,1-1.17.49.63.63,0,0,1-.2-.49V271.71Z"/><path class="cls-1" d="M129.3,271a.68.68,0,0,1,.2-.49.66.66,0,0,1,.49-.2h6.53a.68.68,0,0,1,.69.69.69.69,0,0,1-.2.48.65.65,0,0,1-.49.21h-5.85v8.91h4.8a.63.63,0,0,1,.49.2.69.69,0,0,1-.49,1.17h-4.8v8.92h5.85a.67.67,0,0,1,.49.19.68.68,0,0,1,.2.49.69.69,0,0,1-.2.48.65.65,0,0,1-.49.21H130a.68.68,0,0,1-.69-.69Z"/><path class="cls-1" d="M147.44,283.62a2.38,2.38,0,0,0,1.05-.62,2.3,2.3,0,0,0,.7-1.7v-7.2a2.41,2.41,0,0,0-2.4-2.39H143v19.88a.68.68,0,0,1-.69.69.68.68,0,0,1-.49-.2.66.66,0,0,1-.19-.49V271a.67.67,0,0,1,.19-.49.68.68,0,0,1,.49-.2h4.46a3.77,3.77,0,0,1,3.77,3.77v7.2a3.63,3.63,0,0,1-1.1,2.66,6.22,6.22,0,0,1-1,.74l2.69,6.58a.87.87,0,0,1,.07.31.78.78,0,0,1,0,.21.63.63,0,0,1-.34.39.61.61,0,0,1-.31.09l-.22,0a.7.7,0,0,1-.4-.34L147,284.63a.66.66,0,0,1-.08-.34.7.7,0,0,1,.2-.5A.6.6,0,0,1,147.44,283.62Z"/><path class="cls-1" d="M157.42,291.59a.68.68,0,0,1-.69.69.68.68,0,0,1-.49-.2.66.66,0,0,1-.19-.49V271a.65.65,0,0,1,.68-.68.73.73,0,0,1,.5.18,1,1,0,0,1,.1.16l8.32,17.86V271a.65.65,0,0,1,.68-.68.66.66,0,0,1,.49.19.68.68,0,0,1,.2.49v20.61a.64.64,0,0,1-.19.46.67.67,0,0,1-.5.21.66.66,0,0,1-.48-.21,1.85,1.85,0,0,1-.19-.27L157.42,274Z"/><path class="cls-1" d="M173.19,271a.64.64,0,0,1,.2-.49.69.69,0,0,1,1,0,.68.68,0,0,1,.2.49v20.57a.69.69,0,0,1-1.17.49.63.63,0,0,1-.2-.49Z"/></g></g></svg>