<svg xmlns="http://www.w3.org/2000/svg" viewBox="0 0 183.86 258"><defs><style>.cls-1{fill:#fff;}.cls-2{fill:none;stroke:#fff;stroke-miterlimit:10;stroke-width:2px;}</style></defs><title>2</title><g id="Capa_2" data-name="Capa 2"><g id="Capa_1-2" data-name="Capa 1"><path class="cls-1" d="M93.74,152.45a21.24,21.24,0,0,0,9.19-5.42,20.32,20.32,0,0,0,6.18-14.92V68.81A21.24,21.24,0,0,0,88,47.71H54.85V222.53a6,6,0,1,1-12.05,0V41.68a5.93,5.93,0,0,1,6-6H88a31.94,31.94,0,0,1,23.43,9.73,31.93,31.93,0,0,1,9.72,23.43v63.3a31.82,31.82,0,0,1-9.64,23.36,57.2,57.2,0,0,1-8.59,6.48l23.66,57.87a6.65,6.65,0,0,1,.6,2.71,5.72,5.72,0,0,1-.3,1.81,5.48,5.48,0,0,1-3,3.47,5.59,5.59,0,0,1-2.72.75,11.88,11.88,0,0,1-2-.15,6,6,0,0,1-3.47-3L90,161.34A6.24,6.24,0,0,1,91,154,5.37,5.37,0,0,1,93.74,152.45Z"/><polyline class="cls-2" points="175.42 241.53 175.42 257 1 257 1 1 175.42 1 175.42 197.92"/><circle class="cls-1" cx="174.71" cy="219.73" r="9.14"/></g></g></svg>