<svg xmlns="http://www.w3.org/2000/svg" viewBox="0 0 204.46 33.8"><defs><style>.cls-1,.cls-3{fill:#fff;}.cls-1,.cls-2,.cls-3,.cls-4{stroke:#fff;stroke-miterlimit:10;}.cls-2,.cls-4{fill:none;}.cls-3{stroke-width:0.5px;}.cls-4{stroke-width:3px;}</style></defs><title>Logo-render-interni-white_1</title><g id="Capa_2" data-name="Capa 2"><g id="Capa_1-2" data-name="Capa 1"><path class="cls-1" d="M46.44,31.55V18.46h9v1.7H48.61v4H55v1.69H48.61v4h6.94v1.7Z"/><path class="cls-1" d="M71,18.46V31.55H69L61.68,22h-.14v9.6H59.37V18.46h2l7.33,9.61h.13V18.46Z"/><path class="cls-1" d="M79.81,31.55H75.15V18.46H80a7.84,7.84,0,0,1,3.63.78,5.44,5.44,0,0,1,2.33,2.25,7.1,7.1,0,0,1,.81,3.5,7.06,7.06,0,0,1-.82,3.51,5.48,5.48,0,0,1-2.36,2.26A8.1,8.1,0,0,1,79.81,31.55Zm-2.49-1.73h2.37a5.82,5.82,0,0,0,2.73-.56,3.69,3.69,0,0,0,1.63-1.64A5.71,5.71,0,0,0,84.6,25a5.8,5.8,0,0,0-.54-2.62,3.61,3.61,0,0,0-1.6-1.63,5.67,5.67,0,0,0-2.64-.56h-2.5Z"/><path class="cls-1" d="M90.42,31.55V18.46h9v1.7H92.6v4H99v1.69H92.6v4h6.94v1.7Z"/><path class="cls-1" d="M103.35,31.55V18.46h5.14a6.51,6.51,0,0,1,2.78.52,3.74,3.74,0,0,1,1.65,1.45,4.07,4.07,0,0,1,.55,2.13,4,4,0,0,1-.55,2.12,3.69,3.69,0,0,1-1.66,1.41,6.67,6.67,0,0,1-2.78.51h-3.89V24.9h3.69a4.61,4.61,0,0,0,1.72-.28,1.91,1.91,0,0,0,1-.8,2.4,2.4,0,0,0,.31-1.26,2.5,2.5,0,0,0-.31-1.28,2,2,0,0,0-1-.84,4.44,4.44,0,0,0-1.74-.29h-2.72v11.4Zm7.11-5.91L114,31.55h-2.48l-3.48-5.91Z"/><path class="cls-1" d="M125.52,18.46V31.55h-2.17V18.46Z"/><path class="cls-1" d="M141.3,18.46V31.55h-2L132,22h-.13v9.6h-2.18V18.46h2L139,28.07h.13V18.46Z"/><path class="cls-1" d="M144.74,20.16v-1.7h11.14v1.7h-4.49V31.55h-2.16V20.16Z"/><path class="cls-1" d="M159.33,31.55V18.46h9v1.7H161.5v4h6.39v1.69H161.5v4h6.94v1.7Z"/><path class="cls-1" d="M172.26,31.55V18.46h5.13a6.48,6.48,0,0,1,2.78.52,3.76,3.76,0,0,1,1.66,1.45,4.17,4.17,0,0,1,.55,2.13,4,4,0,0,1-.56,2.12,3.69,3.69,0,0,1-1.66,1.41,6.61,6.61,0,0,1-2.78.51h-3.89V24.9h3.7a4.55,4.55,0,0,0,1.71-.28,1.93,1.93,0,0,0,1-.8,2.4,2.4,0,0,0,.31-1.26,2.61,2.61,0,0,0-.31-1.28,2.1,2.1,0,0,0-1-.84,4.44,4.44,0,0,0-1.74-.29h-2.73v11.4Zm7.11-5.91,3.55,5.91h-2.47L177,25.64Z"/><path class="cls-1" d="M197.64,18.46V31.55h-2L188.32,22h-.13v9.6H186V18.46h2l7.32,9.61h.14V18.46Z"/><path class="cls-1" d="M204,18.46V31.55h-2.17V18.46Z"/><polyline class="cls-2" points="3.54 31.2 0.5 31.2 0.5 2.88 22.92 2.88 22.92 31.2 10.44 31.2"/><circle class="cls-1" cx="7.07" cy="31.2" r="2.1"/><rect class="cls-3" x="22.92" y="2.71" width="2.25" height="28.75"/><polygon class="cls-1" points="42.15 31.56 32.06 17.18 29.61 18.9 38.48 31.56 42.15 31.56"/><path class="cls-4" d="M24,3.69A10.05,10.05,0,0,1,38,5a10.08,10.08,0,0,1-2.42,14.5"/></g></g></svg>